<?xml version="1.0" encoding="UTF-8"?>
<svg xmlns="http://www.w3.org/2000/svg" id="Layer_1" data-name="Layer 1" viewBox="0 0 24 24">
  <path d="M21.226,6.9c-.112-.318-.378-.557-.705-.637-.106-.026-1.791-.43-4.217-.706v-.254c0-2.373-1.931-4.303-4.304-4.303s-4.303,1.931-4.303,4.303v.254c-2.424,.275-4.111,.679-4.217,.705-.329,.08-.596,.321-.707,.641-.034,.097-.627,1.817-.941,4.382,1.293,.272,5.479,1.068,10.169,1.068s8.877-.797,10.17-1.068c-.314-2.579-.91-4.289-.944-4.385Zm-10.53-1.571v-.026c0-.719,.584-1.303,1.303-1.303s1.304,.584,1.304,1.303v.026c-.426-.016-.862-.025-1.304-.025s-.877,.009-1.303,.025Z"/>
  <path d="M12.999,14.34v1.183c0,.552-.447,.999-.999,.999s-.999-.447-.999-.999v-1.183c-4.236-.092-7.859-.744-9.337-1.047-.016,.357-.025,.723-.025,1.098,0,4.236,1.088,6.882,1.135,7.013,.113,.318,.378,.558,.706,.637,.16,.039,3.991,.959,8.521,.959s8.359-.92,8.521-.959c.329-.08,.595-.321,.707-.641,.046-.132,1.133-2.81,1.133-7.01,0-.375-.009-.742-.024-1.099-1.479,.303-5.108,.955-9.338,1.048Z"/>
</svg>
